<svg xmlns="http://www.w3.org/2000/svg" viewBox="0 0 48 48"><rect width="48" height="48" rx="14" fill="#f2efe3"/><path d="m11 10 9 6h8l9-6-1 20c0 7-6 11-12 11S12 37 12 30Z" fill="#ae9277" stroke="#87735f" stroke-width="1.3" stroke-linejoin="round"/><path d="M13 18q6-7 11 0 6-7 11 0v8q-1 10-11 11-10-1-11-11Z" fill="#fffaf0"/><g fill="none" stroke="#34474a" stroke-width="2"><circle cx="17" cy="23" r="7"/><circle cx="31" cy="23" r="7"/></g><g fill="#34474a"><ellipse cx="18" cy="23" rx="2.3" ry="3.2"/><ellipse cx="30" cy="23" rx="2.3" ry="3.2"/></g><path d="m21 29 3 4 3-4" fill="#c8a36a"/><path d="m11 35 13 3 13-3v8l-13 3-13-3Z" fill="#60838b"/><path d="M24 38v8" stroke="#f7f1e3" stroke-width="1"/></svg>
